<?xml version="1.0" encoding="utf-8"?>
<!-- Generator: Adobe Illustrator 21.0.0, SVG Export Plug-In . SVG Version: 6.00 Build 0)  -->
<svg version="1.1" id="Layer_1" xmlns="http://www.w3.org/2000/svg" xmlns:xlink="http://www.w3.org/1999/xlink" x="0px" y="0px"
	 viewBox="0 0 192.1 192.1" style="enable-background:new 0 0 192.1 192.1;" xml:space="preserve">
<path d="M8.3-0.8c0,9.2,0,18.5,0,28.2c10.6,0,20.9,0,32.2,0c-10.2,23.4-20.1,46-30.2,69.1c24.8,0,49,0,73.5,0c0-9.3,0-18.5,0-28.1
	c-9.8,0-19.5,0-29.7,0c0.7-1.8,1.2-3.1,1.7-4.3c9-20.5,18-40.9,27-61.4c0.5-1.1,0.8-2.3,1.2-3.5C58.8-0.8,33.5-0.8,8.3-0.8z"/>
<path d="M91.4,190.7c12.9-29.8,25.3-58.5,38-88.1c-9.4,0-17.9-0.1-26.5,0.1c-0.8,0-2,1.6-2.4,2.7c-2.6,7.1-5,14.4-8.2,21.6
	c-1.2-4.3-2.4-8.7-3.7-13c-1.1-3.8-1.2-9-3.8-11c-2.6-2-7.6-0.9-11.6-0.9c-5.4-0.1-10.7,0-16.7,0C68,131.5,79.5,160.6,91.4,190.7z"
	/>
<path d="M101.2,96.9c25.5,2.2,39.1-9.6,42.1-32.2c0.2-1.7,0.4-3.5,0.7-5.2c1-4.8,2.5-6.2,7.4-7.1c1-0.2,2.7-1.3,2.7-2
	c0.2-8.8,0.1-17.7,0.1-26.9c-11.7-0.6-22.7-0.5-31.6,8.4c-4.8,4.9-6.4,10.8-6.9,17.3c-0.2,2.7-0.4,5.5-0.7,8.2
	c-0.8,7.7-3.6,10.3-11.2,10.9c-0.7,0.1-1.4,0.1-2.3,0.2c-0.1,0.9-0.2,1.6-0.2,2.3C101.2,79.5,101.2,88.1,101.2,96.9z"/>
<path d="M137.7,130.3c1.1,0.6,1.7,1,2.4,1.3c6.7,3,13.5,5.9,20.7,9.1c8.3-18.3,16.6-36.4,24.9-54.8c-8.4-3.7-16.5-7.3-25-11
	C153,93.4,145.4,111.7,137.7,130.3z"/>
<path d="M156.7,155.5c0-9.5-7.8-17.2-17.2-17c-9.3,0.2-16.9,8-16.9,17.5c0,8.9,7.7,16.3,17.1,16.3
	C149.1,172.3,156.8,164.8,156.7,155.5z"/>
</svg>
