<?xml version="1.0" encoding="utf-8"?>
<!-- Generator: Adobe Illustrator 21.0.0, SVG Export Plug-In . SVG Version: 6.00 Build 0)  -->
<svg version="1.1" id="Layer_1" xmlns="http://www.w3.org/2000/svg" xmlns:xlink="http://www.w3.org/1999/xlink" x="0px" y="0px"
	 viewBox="0 0 1553.5 691.4" style="enable-background:new 0 0 1553.5 691.4;" xml:space="preserve">
<style type="text/css">
	.st0{fill:#404041;}
</style>
<path class="st0" d="M754,0c0.2,0.5,0.5,1.2,1.1,2.1c1.7,2.6,4,3.9,5.3,4.7c7.1,4,15.2,6.9,19,8.1c6.1,1.8,4.6,1.1,10.4,2.9
	c10.3,3.1,14.7,5.2,32.6,11.1c0.3,0.1,0.5,0.2,0.7,0.2c7.2,2.4,17.5,5.8,30,10.3c8.1,4.6,8.8,7.7,8.7,9.3
	c-2.8,27.8-316.2,53.8-430,90.3c-12.5,4-36.4,12.6-46.7,34c-11.9,24.9,0.9,53.6,2,56c31.1,65.8,189,77.1,370,90
	c19,1.4,84.2,5.8,100.1,39.9c2.3,5,14.2,33,7.1,65.2c-0.4,2-0.8,3.6-1.1,4.7c-20,78.1-166.8,132.1-673.4,214.4
	C105.3,656.9,37.7,667,0,672.6c0,6.2,0,12.4,0,18.6c258.5,0.1,517,0.1,775.5,0.1c259.3,0,518.7,0.1,778,0.1
	c0.1-18.3,0.1-36.5,0.2-54.8c0-0.2-0.1-0.6-0.1-1.1c0,0-0.9-10.3-2.6-20.5c-20-123.3-149-233.9-149-233.9
	c-3.7-3.1-9.3-7.9-16.9-13.9C1202,220.2,956,214,956,214c-136.1-4.1-332,28.2-415.4-13.4c-3-1.5-10.3-5.2-10.5-10.5
	C529,149.6,953.1,131.2,957,62c0.4-7.5-4.1-14-8.5-18.6C942.9,34.3,935,29.2,929,26c-22.1-11.8-40.1-12.1-77.3-17
	c-12-1.6-29.1-4.3-49.6-9C786,0,770,0,754,0z"/>
</svg>
