<?xml version="1.0" encoding="utf-8"?>
<!-- Generator: Adobe Illustrator 21.0.0, SVG Export Plug-In . SVG Version: 6.00 Build 0)  -->
<svg version="1.1" id="Layer_1" xmlns="http://www.w3.org/2000/svg" xmlns:xlink="http://www.w3.org/1999/xlink" x="0px" y="0px"
	 viewBox="0 0 358.3 446" style="enable-background:new 0 0 358.3 446;" xml:space="preserve">
<style type="text/css">
	.st0{fill:#DE2127;}
	.st1{fill:#005CA0;}
	.st2{fill:#3AA749;}
	.st3{fill:#EDC51A;}
	.st4{fill:#902785;}
	.st5{fill:#019FA1;}
	.st6{fill:#DC1B51;}
	.st7{fill:#0587C2;}
	.st8{fill:#AAC237;}
</style>
<path class="st0" d="M37.3,429.9V0C24.8,0,12.4,0,0,0c0,139.7,0,279.5,0,419.2c0,0.3,0,0.7,0,1c0,0.1,0,0.5,0.4,0.8
	c0.3,0.3,0.7,0.4,0.8,0.4c0.2,0.1,0.6,0.1,1,0.2c2.9,0.8,8.6,2.2,15.7,3.9C25.4,427.4,32.1,428.8,37.3,429.9z"/>
<path class="st1" d="M76.7,437.1V0C63.1,0,49.4,0,35.8,0v429.9C48.6,432.5,62.2,435,76.7,437.1z"/>
<path class="st2" d="M109.5,441.9V0C96.8,0,84.1,0,71.3,0v437.1C83.5,438.9,96.2,440.5,109.5,441.9z"/>
<path class="st3" d="M152.3,445.4V0c-15.8,0-31.5,0-47.3,0v441.8C120,443.5,135.8,444.7,152.3,445.4z"/>
<path class="st4" d="M180.7,446c11.1,0,21.9-0.3,32.4-0.8V0.1c-21,0-41.9,0-62.9,0v445.3C160.1,445.8,170.3,446,180.7,446z"/>
<path class="st5" d="M256.1,441.7V0.1c-15.6,0-31.1,0-46.7,0v445.2C225.6,444.5,241.2,443.3,256.1,441.7z"/>
<path class="st6" d="M290.6,436.9V0.1c-12.4,0-24.7,0-37.1,0v441.7C266.4,440.4,278.8,438.7,290.6,436.9z"/>
<path class="st7" d="M325.5,430.4V0.1c-12.2,0-24.4,0-36.6,0v436.8C301.8,434.9,314,432.7,325.5,430.4z"/>
<path class="st8" d="M356.5,421.5c0-0.1,0-0.2,0-0.4c0-0.1,0-0.1,0-0.2c0-0.2,0-117.7,0-420.8c-0.6,0-16.2,0-16.8,0
	c-5.6,0-11.2,0-16.8,0v430.3c4-0.9,7.9-1.9,11.6-2.8c9.5-2.4,17.3-4.6,21.2-5.8c0.1,0,0.3-0.1,0.4-0.1
	C356.2,421.7,356.4,421.6,356.5,421.5z"/>
</svg>
